<svg fill="none" height="48" viewBox="0 0 237 48" width="237" xmlns="http://www.w3.org/2000/svg" xmlns:xlink="http://www.w3.org/1999/xlink"><clipPath id="a"><path d="m0 0h237v48h-237z"/></clipPath><g clip-path="url(#a)" fill="#ffffff"><path d="m236.58 36.66v5.865h-4.92c-5.25-.165-8.055-3-8.055-8.325v-13.395h-3.435v-5.145h3.435v-5.76001h7.26v5.70001h5.55v5.13h-5.55v12.75c0 1.725.345 3.105 3 3.105z"/><path d="m191.235 29.145v-.39c-.079-1.7252.184-3.449.773-5.0725s1.493-3.1148 2.659-4.3884 2.572-2.3046 4.138-3.0337c1.566-.7292 3.26-1.1422 4.985-1.2154h1.05c6.855 0 12.87 3.99 12.87 13.5v2.025h-19.05c.195 4.38 2.565 6.855 6.555 6.855 3.435 0 5.04-1.5 5.505-3.69h6.855c-.84 5.715-5.4 8.895-12.615 8.895-7.92-.06-13.725-5.07-13.725-13.485zm19.335-3.165c-.255-3.99-2.265-5.91-5.76-5.91s-5.505 2.16-6 5.91z"/><path d="m161.595 29.145v-.39c-.079-1.7228.183-3.4442.77-5.0658s1.488-3.1116 2.651-4.3849c1.163-1.2732 2.566-2.3048 4.128-3.0356s3.253-1.1467 4.976-1.2237h1.05c6.855 0 12.885 3.99 12.885 13.5v2.025h-19.035c.195 4.38 2.565 6.855 6.555 6.855 3.435 0 5.04-1.5 5.505-3.69h6.855c-.855 5.715-5.415 8.895-12.63 8.895-7.905-.06-13.71-5.07-13.71-13.485zm19.335-3.165c-.255-3.99-2.265-5.91-5.76-5.91s-5.445 2.22-6 5.895z"/><path d="m120 15.6h7.68l4.695 17.79 5.145-17.79h6l4.65 17.79 4.95-17.79h7.035l-8.34 26.43h-7.2l-4.5-16.59-4.815 16.59h-7.29z"/><path d="m95.595 33.72h6.855c.315 2.385 1.5 3.75 4.65 3.75 2.82 0 4.125-1.065 4.125-2.88s-1.5-2.58-5.34-3.12c-7.035-1.065-9.75-3.09-9.75-8.25 0-5.505 5.04-8.235 10.5-8.235 5.865 0 10.29 2.13 10.92 8.205h-6.765c-.043-.4697-.179-.9261-.4-1.343-.22-.4168-.521-.7858-.885-1.0857s-.784-.5246-1.235-.6613c-.452-.1367-.926-.1826-1.395-.135h-.225c-2.37 0-3.75 1.11-3.75 2.73s1.275 2.325 5.145 2.88c6.57.99 10.245 2.655 10.245 8.31s-4.155 8.685-11.115 8.685-11.385-3.135-11.58-8.85z"/><path d="m66.465 15.6h7.26v4.185c.8183-1.5361 2.0604-2.805 3.5787-3.6558 1.5183-.8509 3.2489-1.248 4.9863-1.1442 5.145 0 8.88 3.135 8.88 10.29v16.815h-7.17v-15.765c0-3.585-1.395-5.295-4.635-5.295-.6848-.0596-1.3747.0166-2.0299.2243-.6553.2077-1.2631.5427-1.7885.9859-.5255.4433-.9582.9859-1.2734 1.5968-.3151.6108-.5065 1.278-.5632 1.963-.0375.3189-.0375.6411 0 .96v15.27h-7.245z"/><path d="m52.455 8.955c-.0263-.72385.1628-1.43923.5432-2.05557.3805-.61634.9354-1.10592 1.5943-1.40676s1.3922-.39941 2.1072-.28323c.7149.11618 1.3793.44189 1.909.93589.5298.494.901 1.13407 1.0668 1.83918.1657.70511.1185 1.44354-.1356 2.12179-.2542.6783-.7039 1.2659-1.2922 1.6884-.5883.4226-1.2888.6611-2.0127.6853h-.135c-.4493.0284-.8998-.0321-1.3257-.1782-.4258-.146-.8186-.3748-1.1559-.673-.3372-.2982-.6123-.6601-.8094-1.0649-.197-.4048-.3123-.84449-.339-1.2939-.0125-.10451-.0175-.20977-.015-.315zm0 6.645h7.335v26.43h-7.305z"/><path d="m24.81 5.91h23.19v6.405h-15v9.555h11.88v6.165h-11.895v13.995h-8.175z"/><path d="m10.815 17.73c0 2.265 0 5.025-3.12 6.15 3.195 1.095 3.12 3.42 3.12 5.85v9c0 1.71.69 2.745 1.92 3 .2703.0912.555.1319.84.12h3v6h-4.95c-5.28 0-8.19-3-8.19-8.565v-10.65c-.03745-.5468-.27853-1.0596-.67565-1.4373-.39711-.3777-.9214-.5927-1.46935-.6027h-1.29v-5.265h1.29c.55888-.0074 1.09347-.2296 1.49286-.6206.39938-.391.63292-.9208.65214-1.4794v-10.8c0-5.475 2.85-8.43 8.19-8.43h4.995v5.91h-3c-.2853.00083-.5688.04638-.84.135-1.23.315-1.92 1.335-1.92 3z"/></g></svg>