{
  "accessors": [
    {
      "name": "full:Mesh-Mesh_0_positions",
      "componentType": 5126,
      "count": 5768,
      "min": [
        -0.8632310032844543,
        0.00003099999958067201,
        -0.2684749960899353
      ],
      "max": [
        0.6768350005149841,
        3.664078950881958,
        0.3955340087413788
      ],
      "type": "VEC3",
      "bufferView": 0,
      "byteOffset": 0
    },
    {
      "name": "full:Mesh-Mesh_0_normals",
      "componentType": 5126,
      "count": 5768,
      "min": [
        -0.9998055100440979,
        -0.9975967407226562,
        -0.9996739029884338
      ],
      "max": [
        0.9999049305915833,
        0.9968045949935913,
        0.9995282888412476
      ],
      "type": "VEC3",
      "bufferView": 1,
      "byteOffset": 0
    },
    {
      "name": "full:Mesh-Mesh_0_texcoords",
      "componentType": 5126,
      "count": 5768,
      "min": [
        0.005111999809741974,
        0.0024949999060481787
      ],
      "max": [
        0.9940400123596191,
        0.9962369799613953
      ],
      "type": "VEC2",
      "bufferView": 2,
      "byteOffset": 0
    },
    {
      "name": "full:Mesh-Mesh_0_indices",
      "componentType": 5123,
      "count": 21714,
      "min": [
        0
      ],
      "max": [
        5767
      ],
      "type": "SCALAR",
      "bufferView": 3,
      "byteOffset": 0
    }
  ],
  "asset": {
    "generator": "obj2gltf",
    "version": "2.0"
  },
  "buffers": [
    {
      "name": "decimated2",
      "byteLength": 445172,
      "uri": "data:application/octet-stream;base64,"
    }
  ],
  "bufferViews": [
    {
      "name": "bufferView_0",
      "buffer": 0,
      "byteLength": 69216,
      "byteOffset": 0,
      "byteStride": 12,
      "target": 34962
    },
    {
      "name": "bufferView_1",
      "buffer": 0,
      "byteLength": 69216,
      "byteOffset": 69216,
      "byteStride": 12,
      "target": 34962
    },
    {
      "name": "bufferView_2",
      "buffer": 0,
      "byteLength": 46144,
      "byteOffset": 138432,
      "byteStride": 8,
      "target": 34962
    },
    {
      "name": "bufferView_3",
      "buffer": 0,
      "byteLength": 43428,
      "byteOffset": 184576,
      "target": 34963
    },
    {
      "buffer": 0,
      "byteOffset": 228004,
      "byteLength": 217166
    }
  ],
  "images": [
    {
      "name": "126211540579897-full3",
      "mimeType": "image/jpeg",
      "bufferView": 4
    }
  ],
  "materials": [
    {
      "name": "full:output",
      "pbrMetallicRoughness": {
        "baseColorTexture": {
          "index": 0
        },
        "baseColorFactor": [
          1,
          1,
          1,
          1
        ],
        "metallicFactor": 0,
        "roughnessFactor": 1
      },
      "emissiveFactor": [
        0,
        0,
        0
      ],
      "alphaMode": "OPAQUE",
      "doubleSided": false
    }
  ],
  "meshes": [
    {
      "name": "full:Mesh-Mesh",
      "primitives": [
        {
          "attributes": {
            "POSITION": 0,
            "NORMAL": 1,
            "TEXCOORD_0": 2
          },
          "indices": 3,
          "material": 0,
          "mode": 4
        }
      ]
    }
  ],
  "nodes": [
    {
      "name": "full:Mesh",
      "mesh": 0
    }
  ],
  "samplers": [
    {
      "magFilter": 9729,
      "minFilter": 9986,
      "wrapS": 10497,
      "wrapT": 10497
    }
  ],
  "scene": 0,
  "scenes": [
    {
      "nodes": [
        0
      ]
    }
  ],
  "textures": [
    {
      "name": "126211540579897-full3",
      "sampler": 0,
      "source": 0
    }
  ]
}
