<svg xmlns="http://www.w3.org/2000/svg" fill="none" viewBox="0 0 24 24" id="P5js--Streamline-Svg-Logos" height="24" width="24">
  <desc>
    P5js Streamline Icon: https://streamlinehq.com
  </desc>
  <path fill="#ed225d" d="M1.5671425 9.18235v0.767325h0.0344425c0.068595 -0.1068 0.1582975 -0.215675 0.2691075 -0.3264 0.1106175 -0.1107 0.246275 -0.2099 0.406685 -0.297875 0.1603125 -0.0875 0.3416475 -0.160225 0.5440725 -0.2176 0.20215 -0.057175 0.429525 -0.08595 0.68145 -0.08595 0.3895 0 0.748325 0.07455 1.076725 0.22335 0.3283 0.149175 0.610925 0.353425 0.8477 0.61295 0.2366 0.2597 0.419825 0.565175 0.549725 0.9163 0.129825 0.351325 0.194775 0.729325 0.194775 1.134 0 0.404675 -0.06305 0.784575 -0.1891 1.13965 -0.125875 0.355075 -0.305575 0.664275 -0.538325 0.927725 -0.233025 0.26345 -0.515375 0.47375 -0.8476 0.62995 -0.33225 0.156475 -0.708425 0.23475 -1.12825 0.23475 -0.3895 0 -0.7465 -0.0802 -1.0709625 -0.240425 -0.3247525 -0.1604 -0.5746725 -0.3779 -0.75024 -0.65305h-0.0228325v3.4821H0.25V9.18235h1.3171425Zm3.2072325 2.726c0 -0.21385 -0.032525 -0.425775 -0.097375 -0.635775 -0.06505 -0.209925 -0.162325 -0.398925 -0.292125 -0.567 -0.129925 -0.1677 -0.293975 -0.303375 -0.49255 -0.4066 -0.1986 -0.103025 -0.43145 -0.15455 -0.698625 -0.15455 -0.25205 0 -0.4774 0.053425 -0.6758 0.1604 -0.1985975 0.106975 -0.3686 0.24455 -0.5097275 0.41225 -0.1414125 0.1681 -0.2481925 0.359 -0.3207225 0.57285 -0.0727225 0.21385 -0.108795 0.4278 -0.108795 0.64145 0 0.21385 0.0360725 0.425775 0.108795 0.6356 0.07253 0.2102 0.17931 0.3991 0.3207225 0.567175 0.1412225 0.1679 0.31113 0.30355 0.5097275 0.4064 0.1984 0.103225 0.42375 0.154575 0.6758 0.154575 0.267175 0 0.500025 -0.05325 0.698625 -0.160225 0.198475 -0.106975 0.362625 -0.24435 0.49255 -0.41245 0.1298 -0.167875 0.227075 -0.3588 0.292125 -0.57265 0.06485 -0.21385 0.097375 -0.4277 0.097375 -0.64145Zm13.39775 -2.988675v6.092675c0 0.3283 -0.026775 0.639525 -0.0802 0.933475 -0.053625 0.293975 -0.154575 0.54975 -0.30355 0.767525 -0.1488 0.217775 -0.351325 0.391225 -0.6071 0.521125 -0.255975 0.1299 -0.58985 0.194675 -1.002275 0.194675 -0.11445 0 -0.229 -0.007675 -0.34365 -0.02285 -0.114475 -0.01535 -0.206075 -0.0307 -0.274875 -0.04595l0.11465 -1.168325c0.061125 0.01535 0.125875 0.02675 0.19465 0.034425 0.0688 0.0075 0.129725 0.011425 0.18325 0.011425 0.160225 0 0.290025 -0.0305 0.389425 -0.091625 0.0991 -0.0613 0.17555 -0.14525 0.2292 -0.252025 0.053225 -0.106975 0.087675 -0.231025 0.103025 -0.37235 0.01515 -0.1413 0.022825 -0.291925 0.022825 -0.45235V8.919675h1.374625ZM14.7401 12.663875l0 0.853375 0.81855 -0.24705 0.1608 0.49465 -0.8153 0.27805 0.5061 0.717625 -0.42665 0.309475 -0.53275 -0.70495 -0.518825 0.68635 -0.414375 -0.31555 0.506075 -0.69295 -0.821525 -0.29645 0.1609 -0.49505 0.824975 0.26585v-0.853375h0.552025Zm8.1167 -2.015475c-0.1223 -0.160425 -0.2902 -0.299625 -0.50405 -0.418025 -0.21385 -0.118375 -0.4467 -0.177675 -0.698725 -0.177675 -0.221525 0 -0.423675 0.04595 -0.6069 0.137575 -0.18345 0.091425 -0.274875 0.24435 -0.274875 0.458125 0 0.21375 0.101025 0.36485 0.30335 0.45235 0.20235 0.087875 0.498425 0.177675 0.887825 0.2693 0.206075 0.04595 0.414075 0.10695 0.624175 0.183225s0.401025 0.1775 0.57285 0.30355c0.17165 0.125875 0.31105 0.28255 0.418 0.469625 0.1068 0.187175 0.160425 0.414275 0.160425 0.68155 0 0.336175 -0.063125 0.620625 -0.1891 0.853375 -0.125875 0.23295 -0.29395 0.42195 -0.50405 0.567 -0.210125 0.14505 -0.454375 0.2501 -0.733075 0.314975 -0.2788 0.06485 -0.5668 0.097275 -0.8648 0.097275 -0.427775 0 -0.843775 -0.0783 -1.24855 -0.234775 -0.40475 -0.156275 -0.740725 -0.3798 -1.007925 -0.669825l0.9049 -0.847725c0.152725 0.1986 0.351125 0.36275 0.595675 0.49245 0.24435 0.1299 0.5153 0.194675 0.813275 0.194675 0.0991 0 0.200325 -0.011225 0.30355 -0.03425 0.10305 -0.02285 0.1984 -0.059 0.286275 -0.1087 0.0877 -0.0497 0.1583 -0.116375 0.211925 -0.200525 0.05325 -0.084125 0.080025 -0.186975 0.080025 -0.3094 0 -0.2292 -0.10495 -0.39315 -0.314775 -0.49245 -0.2102 -0.0993 -0.525275 -0.1986 -0.945 -0.2978 -0.206275 -0.04595 -0.406775 -0.10495 -0.601525 -0.177675 -0.194675 -0.072525 -0.368425 -0.1679 -0.52115 -0.286275 -0.152925 -0.1184 -0.274875 -0.265175 -0.366475 -0.441125 -0.091625 -0.175575 -0.137575 -0.393175 -0.137575 -0.652875 0 -0.305475 0.062925 -0.568725 0.189075 -0.79015 0.125875 -0.2217 0.29215 -0.40265 0.498225 -0.54435 0.206075 -0.141125 0.439 -0.246175 0.698725 -0.314775 0.2595 -0.0688 0.526875 -0.103225 0.80175 -0.103225 0.3969 0 0.7846 0.068775 1.1625 0.206075 0.3779 0.137575 0.6775 0.347775 0.899225 0.630125l-0.8932 0.79035Zm-10.9444 0.280525c-0.1413 -0.3167 -0.3378 -0.584075 -0.589825 -0.801775 -0.251925 -0.217575 -0.5479 -0.38375 -0.887625 -0.4982 -0.3399 -0.11445 -0.7084 -0.171825 -1.1053 -0.171825 -0.145175 0 -0.3074 0.00785 -0.4868 0.022825 -0.1795 0.01555 -0.33405 0.042125 -0.463875 0.0804l0.080125 -1.7526h3.310275v-1.23695h-4.616l-0.1375 4.432475c0.12195 -0.060925 0.26145 -0.1182 0.418025 -0.171825 0.156475 -0.05325 0.316775 -0.101025 0.481025 -0.14295 0.16415 -0.042025 0.33225 -0.07435 0.504075 -0.097475 0.171825 -0.02285 0.33395 -0.03425 0.486775 -0.03425 0.22135 0 0.439025 0.02475 0.652875 0.07435 0.21375 0.0497 0.406575 0.137575 0.5784 0.26345 0.17185 0.125875 0.31105 0.292125 0.418125 0.4982 0.106775 0.206075 0.1603 0.465775 0.1603 0.778925 0 0.24435 -0.0401 0.463975 -0.1203 0.658625 -0.080125 0.194475 -0.189 0.356975 -0.3263 0.4866 -0.137575 0.13 -0.297775 0.2292 -0.481225 0.2978 -0.18325 0.068975 -0.3779 0.103225 -0.584175 0.103225 -0.366375 0 -0.68345 -0.097475 -0.95065 -0.292125 -0.267375 -0.194675 -0.4581 -0.45235 -0.57275 -0.773175l-0.01525 0.00565 -0.9947 0.93205c0.201175 0.3281 0.4605 0.6026 0.78095 0.820575 0.465675 0.316675 1.038325 0.475375 1.71815 0.475375 0.404675 0 0.786425 -0.06505 1.145325 -0.194675 0.3588 -0.1297 0.67195 -0.316875 0.93925 -0.561425 0.267175 -0.244175 0.4791 -0.543975 0.635775 -0.89905 0.156375 -0.355075 0.234675 -0.757725 0.234675 -1.20845 0.000075 -0.412325 -0.070525 -0.7767 -0.21185 -1.093775Z" stroke-width="0.25"></path>
</svg>