<svg xmlns="http://www.w3.org/2000/svg" version="1.1" xmlns:xlink="http://www.w3.org/1999/xlink" width="300" height="300"><svg width="300" height="300" viewBox="0 0 300 300" fill="none" xmlns="http://www.w3.org/2000/svg">
<g clip-path="url(#clip0_246_161)">
<rect width="300" height="300" rx="42" fill="#4D4D4D"></rect>
<mask id="SvgjsMask1003" style="mask-type:alpha" maskUnits="userSpaceOnUse" x="0" y="0" width="300" height="300">
<rect width="300" height="300" rx="42" fill="#D9D9D9"></rect>
</mask>
<g mask="url(#mask0_246_161)">
<path d="M113.806 260.5V241.921H82.8401V223.341H64.2607V189.041H83.3165C120.475 189.041 109.518 221.912 158.587 221.912C181.454 221.912 196.699 210.479 196.699 193.328C196.699 177.607 187.171 169.985 162.874 166.65L128.098 161.886C86.1749 156.17 64.2607 134.255 64.2607 98.5258V75.6588H82.8401V57.0794H113.806V38.5H186.694V57.0794H217.66V75.6588H236.239V109.006H219.089C183.359 109.006 192.411 76.1352 144.295 76.1352C119.523 76.1352 105.707 84.2339 105.707 99.4785C105.707 112.818 116.188 120.916 137.626 124.251L177.643 129.968C214.802 135.685 236.239 157.599 236.239 193.805V223.341H217.66V241.921H186.694V260.5H113.806Z" fill="#73FDA6"></path>
<rect x="298" y="2" width="10" height="10" transform="rotate(90 298 2)" fill="#73FDA6"></rect>
<rect x="288" y="2" width="10" height="10" transform="rotate(90 288 2)" fill="#73FDA6"></rect>
<rect x="288" y="12" width="10" height="10" transform="rotate(90 288 12)" fill="#73FDA6"></rect>
<rect x="278" y="12" width="10" height="10" transform="rotate(90 278 12)" fill="#73FDA6"></rect>
<rect x="278" y="22" width="10" height="10" transform="rotate(90 278 22)" fill="#73FDA6"></rect>
<rect x="268" y="32" width="10" height="10" transform="rotate(90 268 32)" fill="#73FDA6"></rect>
<rect x="268" y="22" width="10" height="10" transform="rotate(90 268 22)" fill="#73FDA6"></rect>
<rect x="258" y="22" width="10" height="10" transform="rotate(90 258 22)" fill="#73FDA6"></rect>
<rect x="278" y="32" width="10" height="10" transform="rotate(90 278 32)" fill="#73FDA6"></rect>
<rect x="278" y="42" width="10" height="10" transform="rotate(90 278 42)" fill="#73FDA6"></rect>
<rect x="268" y="12" width="10" height="10" transform="rotate(90 268 12)" fill="#73FDA6"></rect>
<rect x="258" y="12" width="10" height="10" transform="rotate(90 258 12)" fill="#73FDA6"></rect>
<rect x="248" y="12" width="10" height="10" transform="rotate(90 248 12)" fill="#73FDA6"></rect>
<rect x="288" y="22" width="10" height="10" transform="rotate(90 288 22)" fill="#73FDA6"></rect>
<rect x="288" y="32" width="10" height="10" transform="rotate(90 288 32)" fill="#73FDA6"></rect>
<rect x="288" y="42" width="10" height="10" transform="rotate(90 288 42)" fill="#73FDA6"></rect>
<rect x="288" y="52" width="10" height="10" transform="rotate(90 288 52)" fill="#73FDA6"></rect>
<rect x="278" y="2" width="10" height="10" transform="rotate(90 278 2)" fill="#73FDA6"></rect>
<rect x="268" y="2" width="10" height="10" transform="rotate(90 268 2)" fill="#73FDA6"></rect>
<rect x="258" y="2" width="10" height="10" transform="rotate(90 258 2)" fill="#73FDA6"></rect>
<rect x="248" y="2" width="10" height="10" transform="rotate(90 248 2)" fill="#73FDA6"></rect>
<rect x="238" y="2" width="10" height="10" transform="rotate(90 238 2)" fill="#73FDA6"></rect>
<rect x="228" y="2" width="10" height="10" transform="rotate(90 228 2)" fill="#73FDA6"></rect>
<path d="M298 12L298 22L288 22L288 12L298 12Z" fill="#73FDA6"></path>
<path d="M298 22L298 32L288 32L288 22L298 22Z" fill="#73FDA6"></path>
<path d="M298 32L298 42L288 42L288 32L298 32Z" fill="#73FDA6"></path>
<path d="M298 42L298 52L288 52L288 42L298 42Z" fill="#73FDA6"></path>
<path d="M298 52L298 62L288 62L288 52L298 52Z" fill="#73FDA6"></path>
<path d="M298 62L298 72L288 72L288 62L298 62Z" fill="#73FDA6"></path>
<path d="M298 72L298 82L288 82L288 72L298 72Z" fill="#73FDA6"></path>
<rect width="10" height="10" transform="matrix(-4.37114e-08 -1 -1 4.37114e-08 298 298)" fill="#73FDA6"></rect>
<rect width="10" height="10" transform="matrix(-4.37114e-08 -1 -1 4.37114e-08 288 298)" fill="#73FDA6"></rect>
<rect width="10" height="10" transform="matrix(-4.37114e-08 -1 -1 4.37114e-08 288 288)" fill="#73FDA6"></rect>
<rect width="10" height="10" transform="matrix(-4.37114e-08 -1 -1 4.37114e-08 278 288)" fill="#73FDA6"></rect>
<rect width="10" height="10" transform="matrix(-4.37114e-08 -1 -1 4.37114e-08 278 278)" fill="#73FDA6"></rect>
<rect width="10" height="10" transform="matrix(-4.37114e-08 -1 -1 4.37114e-08 268 268)" fill="#73FDA6"></rect>
<rect width="10" height="10" transform="matrix(-4.37114e-08 -1 -1 4.37114e-08 268 278)" fill="#73FDA6"></rect>
<rect width="10" height="10" transform="matrix(-4.37114e-08 -1 -1 4.37114e-08 258 278)" fill="#73FDA6"></rect>
<rect width="10" height="10" transform="matrix(-4.37114e-08 -1 -1 4.37114e-08 278 268)" fill="#73FDA6"></rect>
<rect width="10" height="10" transform="matrix(-4.37114e-08 -1 -1 4.37114e-08 278 258)" fill="#73FDA6"></rect>
<rect width="10" height="10" transform="matrix(-4.37114e-08 -1 -1 4.37114e-08 268 288)" fill="#73FDA6"></rect>
<rect width="10" height="10" transform="matrix(-4.37114e-08 -1 -1 4.37114e-08 258 288)" fill="#73FDA6"></rect>
<rect width="10" height="10" transform="matrix(-4.37114e-08 -1 -1 4.37114e-08 248 288)" fill="#73FDA6"></rect>
<rect width="10" height="10" transform="matrix(-4.37114e-08 -1 -1 4.37114e-08 288 278)" fill="#73FDA6"></rect>
<rect width="10" height="10" transform="matrix(-4.37114e-08 -1 -1 4.37114e-08 288 268)" fill="#73FDA6"></rect>
<rect width="10" height="10" transform="matrix(-4.37114e-08 -1 -1 4.37114e-08 288 258)" fill="#73FDA6"></rect>
<rect width="10" height="10" transform="matrix(-4.37114e-08 -1 -1 4.37114e-08 288 248)" fill="#73FDA6"></rect>
<rect width="10" height="10" transform="matrix(-4.37114e-08 -1 -1 4.37114e-08 278 298)" fill="#73FDA6"></rect>
<rect width="10" height="10" transform="matrix(-4.37114e-08 -1 -1 4.37114e-08 268 298)" fill="#73FDA6"></rect>
<rect width="10" height="10" transform="matrix(-4.37114e-08 -1 -1 4.37114e-08 258 298)" fill="#73FDA6"></rect>
<rect width="10" height="10" transform="matrix(-4.37114e-08 -1 -1 4.37114e-08 248 298)" fill="#73FDA6"></rect>
<rect width="10" height="10" transform="matrix(-4.37114e-08 -1 -1 4.37114e-08 238 298)" fill="#73FDA6"></rect>
<rect width="10" height="10" transform="matrix(-4.37114e-08 -1 -1 4.37114e-08 228 298)" fill="#73FDA6"></rect>
<path d="M298 288L298 278L288 278L288 288L298 288Z" fill="#73FDA6"></path>
<path d="M298 278L298 268L288 268L288 278L298 278Z" fill="#73FDA6"></path>
<path d="M298 268L298 258L288 258L288 268L298 268Z" fill="#73FDA6"></path>
<path d="M298 258L298 248L288 248L288 258L298 258Z" fill="#73FDA6"></path>
<path d="M298 248L298 238L288 238L288 248L298 248Z" fill="#73FDA6"></path>
<path d="M298 238L298 228L288 228L288 238L298 238Z" fill="#73FDA6"></path>
<path d="M298 228L298 218L288 218L288 228L298 228Z" fill="#73FDA6"></path>
<rect width="10" height="10" transform="matrix(4.37114e-08 1 1 -4.37114e-08 2 2)" fill="#73FDA6"></rect>
<rect width="10" height="10" transform="matrix(4.37114e-08 1 1 -4.37114e-08 12 2)" fill="#73FDA6"></rect>
<rect width="10" height="10" transform="matrix(4.37114e-08 1 1 -4.37114e-08 12 12)" fill="#73FDA6"></rect>
<rect width="10" height="10" transform="matrix(4.37114e-08 1 1 -4.37114e-08 22 12)" fill="#73FDA6"></rect>
<rect width="10" height="10" transform="matrix(4.37114e-08 1 1 -4.37114e-08 22 22)" fill="#73FDA6"></rect>
<rect width="10" height="10" transform="matrix(4.37114e-08 1 1 -4.37114e-08 32 32)" fill="#73FDA6"></rect>
<rect width="10" height="10" transform="matrix(4.37114e-08 1 1 -4.37114e-08 32 22)" fill="#73FDA6"></rect>
<rect width="10" height="10" transform="matrix(4.37114e-08 1 1 -4.37114e-08 42 22)" fill="#73FDA6"></rect>
<rect width="10" height="10" transform="matrix(4.37114e-08 1 1 -4.37114e-08 22 32)" fill="#73FDA6"></rect>
<rect width="10" height="10" transform="matrix(4.37114e-08 1 1 -4.37114e-08 22 42)" fill="#73FDA6"></rect>
<rect width="10" height="10" transform="matrix(4.37114e-08 1 1 -4.37114e-08 32 12)" fill="#73FDA6"></rect>
<rect width="10" height="10" transform="matrix(4.37114e-08 1 1 -4.37114e-08 42 12)" fill="#73FDA6"></rect>
<rect width="10" height="10" transform="matrix(4.37114e-08 1 1 -4.37114e-08 52 12)" fill="#73FDA6"></rect>
<rect width="10" height="10" transform="matrix(4.37114e-08 1 1 -4.37114e-08 12 22)" fill="#73FDA6"></rect>
<rect width="10" height="10" transform="matrix(4.37114e-08 1 1 -4.37114e-08 12 32)" fill="#73FDA6"></rect>
<rect width="10" height="10" transform="matrix(4.37114e-08 1 1 -4.37114e-08 12 42)" fill="#73FDA6"></rect>
<rect width="10" height="10" transform="matrix(4.37114e-08 1 1 -4.37114e-08 12 52)" fill="#73FDA6"></rect>
<rect width="10" height="10" transform="matrix(4.37114e-08 1 1 -4.37114e-08 22 2)" fill="#73FDA6"></rect>
<rect width="10" height="10" transform="matrix(4.37114e-08 1 1 -4.37114e-08 32 2)" fill="#73FDA6"></rect>
<rect width="10" height="10" transform="matrix(4.37114e-08 1 1 -4.37114e-08 42 2)" fill="#73FDA6"></rect>
<rect width="10" height="10" transform="matrix(4.37114e-08 1 1 -4.37114e-08 52 2)" fill="#73FDA6"></rect>
<rect width="10" height="10" transform="matrix(4.37114e-08 1 1 -4.37114e-08 62 2)" fill="#73FDA6"></rect>
<rect width="10" height="10" transform="matrix(4.37114e-08 1 1 -4.37114e-08 72 2)" fill="#73FDA6"></rect>
<path d="M2 12L2 22L12 22L12 12L2 12Z" fill="#73FDA6"></path>
<path d="M2 22L2 32L12 32L12 22L2 22Z" fill="#73FDA6"></path>
<path d="M2 32L2 42L12 42L12 32L2 32Z" fill="#73FDA6"></path>
<path d="M2 42L2 52L12 52L12 42L2 42Z" fill="#73FDA6"></path>
<path d="M2 52L2 62L12 62L12 52L2 52Z" fill="#73FDA6"></path>
<path d="M2 62L2 72L12 72L12 62L2 62Z" fill="#73FDA6"></path>
<path d="M2 72L2 82L12 82L12 72L2 72Z" fill="#73FDA6"></path>
<rect x="2" y="298" width="10" height="10" transform="rotate(-90 2 298)" fill="#73FDA6"></rect>
<rect x="12" y="298" width="10" height="10" transform="rotate(-90 12 298)" fill="#73FDA6"></rect>
<rect x="12" y="288" width="10" height="10" transform="rotate(-90 12 288)" fill="#73FDA6"></rect>
<rect x="22" y="288" width="10" height="10" transform="rotate(-90 22 288)" fill="#73FDA6"></rect>
<rect x="22" y="278" width="10" height="10" transform="rotate(-90 22 278)" fill="#73FDA6"></rect>
<rect x="32" y="268" width="10" height="10" transform="rotate(-90 32 268)" fill="#73FDA6"></rect>
<rect x="32" y="278" width="10" height="10" transform="rotate(-90 32 278)" fill="#73FDA6"></rect>
<rect x="42" y="278" width="10" height="10" transform="rotate(-90 42 278)" fill="#73FDA6"></rect>
<rect x="22" y="268" width="10" height="10" transform="rotate(-90 22 268)" fill="#73FDA6"></rect>
<rect x="22" y="258" width="10" height="10" transform="rotate(-90 22 258)" fill="#73FDA6"></rect>
<rect x="32" y="288" width="10" height="10" transform="rotate(-90 32 288)" fill="#73FDA6"></rect>
<rect x="42" y="288" width="10" height="10" transform="rotate(-90 42 288)" fill="#73FDA6"></rect>
<rect x="52" y="288" width="10" height="10" transform="rotate(-90 52 288)" fill="#73FDA6"></rect>
<rect x="12" y="278" width="10" height="10" transform="rotate(-90 12 278)" fill="#73FDA6"></rect>
<rect x="12" y="268" width="10" height="10" transform="rotate(-90 12 268)" fill="#73FDA6"></rect>
<rect x="12" y="258" width="10" height="10" transform="rotate(-90 12 258)" fill="#73FDA6"></rect>
<rect x="12" y="248" width="10" height="10" transform="rotate(-90 12 248)" fill="#73FDA6"></rect>
<rect x="22" y="298" width="10" height="10" transform="rotate(-90 22 298)" fill="#73FDA6"></rect>
<rect x="32" y="298" width="10" height="10" transform="rotate(-90 32 298)" fill="#73FDA6"></rect>
<rect x="42" y="298" width="10" height="10" transform="rotate(-90 42 298)" fill="#73FDA6"></rect>
<rect x="52" y="298" width="10" height="10" transform="rotate(-90 52 298)" fill="#73FDA6"></rect>
<rect x="62" y="298" width="10" height="10" transform="rotate(-90 62 298)" fill="#73FDA6"></rect>
<rect x="72" y="298" width="10" height="10" transform="rotate(-90 72 298)" fill="#73FDA6"></rect>
<path d="M2 288L2 278L12 278L12 288L2 288Z" fill="#73FDA6"></path>
<path d="M2 278L2 268L12 268L12 278L2 278Z" fill="#73FDA6"></path>
<path d="M2 268L2 258L12 258L12 268L2 268Z" fill="#73FDA6"></path>
<path d="M2 258L2 248L12 248L12 258L2 258Z" fill="#73FDA6"></path>
<path d="M2 248L2 238L12 238L12 248L2 248Z" fill="#73FDA6"></path>
<path d="M2 238L2 228L12 228L12 238L2 238Z" fill="#73FDA6"></path>
<path d="M2 228L2 218L12 218L12 228L2 228Z" fill="#73FDA6"></path>
</g>
<rect x="1" y="1" width="298" height="298" rx="41" stroke="#73FDA6" stroke-width="2"></rect>
</g>
<defs>
<clipPath id="SvgjsClipPath1002">
<rect width="300" height="300" fill="white"></rect>
</clipPath>
</defs>
</svg><style>@media (prefers-color-scheme: light) { :root { filter: none; } }
@media (prefers-color-scheme: dark) { :root { filter: none; } }
</style></svg>