<svg width="162" height="47" viewBox="0 0 162 47" fill="none" xmlns="http://www.w3.org/2000/svg">
<g clip-path="url(#clip0_220_385)">
<rect width="24" height="24" fill="white"/>
<rect x="0.5" y="0.5" width="23" height="23" stroke="black" stroke-opacity="0.1"/>
<rect x="23" width="24" height="24" fill="white"/>
<rect x="23.5" y="0.5" width="23" height="23" stroke="black" stroke-opacity="0.1"/>
<rect x="138" y="23" width="24" height="24" fill="white"/>
<rect x="138.5" y="23.5" width="23" height="23" stroke="black" stroke-opacity="0.1"/>
<rect x="46" width="24" height="24" fill="white"/>
<rect x="46.5" y="0.5" width="23" height="23" stroke="black" stroke-opacity="0.1"/>
<rect x="69" width="24" height="24" fill="white"/>
<rect x="69.5" y="0.5" width="23" height="23" stroke="black" stroke-opacity="0.1"/>
<rect x="92" width="24" height="24" fill="white"/>
<rect x="92.5" y="0.5" width="23" height="23" stroke="black" stroke-opacity="0.1"/>
<rect x="115" width="24" height="24" fill="white"/>
<rect x="115.5" y="0.5" width="23" height="23" stroke="black" stroke-opacity="0.1"/>
<rect x="115" y="23" width="24" height="24" fill="white"/>
<rect x="115.5" y="23.5" width="23" height="23" stroke="black" stroke-opacity="0.1"/>
<rect x="92" y="23" width="24" height="24" fill="white"/>
<rect x="92.5" y="23.5" width="23" height="23" stroke="black" stroke-opacity="0.1"/>
<rect x="138" width="24" height="24" fill="white"/>
<rect x="138.5" y="0.5" width="23" height="23" stroke="black" stroke-opacity="0.1"/>
<path d="M144.516 44V27.2H152.532V28.136H154.404V29.072H155.34V30.944H156.276V34.064H155.34V35.936H154.404V36.872H152.532V37.808H146.652V44H144.516ZM146.58 34.304C146.58 35.36 147.108 35.864 148.26 35.864H150.084C152.34 35.864 153.876 34.52 153.876 32.504C153.876 30.488 152.34 29.144 150.084 29.144H148.26C147.108 29.144 146.58 29.624 146.58 30.704V34.304Z" fill="black"/>
<path d="M122.193 44H120.441V41.192H121.377V38.408H122.313V36.536H123.249V33.752H124.185V31.88H125.121V29.072H126.057V27.2H129.177V29.072H130.113V31.88H131.049V33.752H131.985V36.536H132.921V38.408H133.857V41.192H134.793V44H132.945L131.793 40.76C131.385 39.632 130.689 39.08 129.633 39.08H125.481C124.425 39.08 123.753 39.632 123.345 40.76L122.193 44ZM125.121 36.176C125.121 37.112 125.817 37.496 127.545 37.496C129.297 37.496 129.969 37.136 129.969 36.2C129.969 35.84 129.897 35.576 129.729 35.12L128.193 31.04C128.073 30.68 127.857 30.512 127.569 30.512C127.257 30.512 127.065 30.68 126.921 31.04L125.385 35.12C125.193 35.576 125.121 35.816 125.121 36.176Z" fill="black"/>
<path d="M101.84 44V43.064H99.9681V42.128H99.0321V41.192H98.0961V40.256H97.1601V38.384H96.2241V32.816H97.1601V30.944H98.0961V30.008H99.0321V29.072H99.9681V28.136H101.84V27.2H107.48V28.136H109.352V29.072H110.288V30.008H111.224V30.944H112.16V32.528H110.816C109.952 32.528 109.424 31.976 108.704 31.136C107.6 29.888 106.304 29.312 104.552 29.312C101.144 29.312 98.5761 32.024 98.5761 35.6C98.5761 39.176 101.144 41.888 104.552 41.888C106.328 41.888 107.6 41.312 108.704 40.064C109.424 39.224 109.952 38.672 110.816 38.672H112.16V40.256H111.224V41.192H110.288V42.128H109.352V43.064H107.48V44H101.84Z" fill="black"/>
<path d="M151.811 8.12789C149.059 8.12789 147.523 9.50389 147.523 12.6079V19.9999H144.675V5.08789H147.139V7.58389H148.387V6.33589H149.635V5.08789H152.451V8.12789H151.811Z" fill="black"/>
<path d="M125.264 19.9999V18.7519H123.184V17.5039H121.936V15.0079H120.688V10.0799H121.936V7.58389H123.184V6.33589H125.264V5.08789H130.928V6.33589H133.008V7.58389H134.256V13.0879H125.552C124.528 13.0879 124.08 13.5039 124.08 14.3039C124.08 16.0959 125.904 17.4399 127.888 17.4399C131.216 17.4399 130.96 15.2639 133.328 15.2639H134.288V17.5039H133.04V18.7519H130.96V19.9999H125.264ZM124.144 10.0799C124.144 10.7839 124.592 11.1359 125.488 11.1359H130.16C131.248 11.1359 131.76 10.7839 131.76 10.0159C131.76 8.60789 130.256 7.61589 127.984 7.61589C125.808 7.61589 124.144 8.73589 124.144 10.0799Z" fill="black"/>
<path d="M102.652 19.9999V18.7519H100.316V17.5039H99.0678V15.0079H97.8198V10.0799H99.0678V7.58389H100.316V6.33589H102.652V5.08789H108.156V6.33589H110.236V7.58389H111.484V10.2079H110.524C108.092 10.2079 108.508 7.83989 105.148 7.83989C102.78 7.83989 100.892 9.85589 100.892 12.5439C100.892 15.2319 102.78 17.2479 105.148 17.2479C108.508 17.2479 108.092 14.8799 110.524 14.8799H111.484V17.5039H110.236V18.7519H108.156V19.9999H102.652Z" fill="black"/>
<path d="M75.1626 19.9999V5.08789H77.6266V7.58389H78.8746V6.33589H80.1226V5.08789H84.0906V6.33589H86.5866V8.83189H87.8346V19.9999H84.9866V11.7439C84.9866 9.47189 83.5466 7.90389 81.4986 7.90389C79.4506 7.90389 78.0106 9.47189 78.0106 11.7439V19.9999H75.1626Z" fill="black"/>
<path d="M55.7518 19.9999V18.7519H53.6718V17.5039H52.4238V15.0079H51.1758V10.0799H52.4238V7.58389H53.6718V6.33589H55.7518V5.08789H61.4158V6.33589H63.4958V7.58389H64.7438V13.0879H56.0398C55.0158 13.0879 54.5678 13.5039 54.5678 14.3039C54.5678 16.0959 56.3918 17.4399 58.3758 17.4399C61.7038 17.4399 61.4478 15.2639 63.8158 15.2639H64.7758V17.5039H63.5278V18.7519H61.4478V19.9999H55.7518ZM54.6318 10.0799C54.6318 10.7839 55.0798 11.1359 55.9758 11.1359H60.6478C61.7358 11.1359 62.2478 10.7839 62.2478 10.0159C62.2478 8.60789 60.7438 7.61589 58.4718 7.61589C56.2958 7.61589 54.6318 8.73589 54.6318 10.0799Z" fill="black"/>
<path d="M27.3623 26.1439V5.08789H29.9543V7.58389H31.2023V6.33589H32.4503V5.08789H37.1863V6.33589H39.5223V7.58389H40.7703V10.0799H42.0183V15.0079H40.7703V17.5039H39.5223V18.7519H37.1863V19.9999H32.7383V18.7519H31.4583V17.5039H30.2103V26.1439H27.3623ZM30.0823 12.5439C30.0823 15.3599 31.9703 17.3439 34.5943 17.3439C37.2183 17.3439 39.0743 15.3599 39.0743 12.5439C39.0743 9.72789 37.2183 7.74389 34.5943 7.74389C31.9703 7.74389 30.0823 9.75989 30.0823 12.5439Z" fill="black"/>
<path d="M8.80017 19.9999V18.7519H6.72017V17.5039H5.47217V15.1999H6.75217C9.24817 15.1999 8.51217 17.4079 11.8082 17.4079C13.3442 17.4079 14.3682 16.6399 14.3682 15.4879C14.3682 14.4319 13.7282 13.9199 12.0962 13.6959L9.76017 13.3759C6.94417 12.9919 5.47217 11.5199 5.47217 9.11989V7.58389H6.72017V6.33589H8.80017V5.08789H13.6962V6.33589H15.7762V7.58389H17.0242V9.82389H15.8722C13.4722 9.82389 14.0802 7.61589 10.8482 7.61589C9.18417 7.61589 8.25617 8.15989 8.25617 9.18389C8.25617 10.0799 8.96017 10.6239 10.4002 10.8479L13.0882 11.2319C15.5842 11.6159 17.0242 13.0879 17.0242 15.5199V17.5039H15.7762V18.7519H13.6962V19.9999H8.80017Z" fill="black"/>
</g>
<defs>
<clipPath id="clip0_220_385">
<rect width="162" height="47" fill="white"/>
</clipPath>
</defs>
</svg>
